<svg xmlns="http://www.w3.org/2000/svg" xmlns:xlink="http://www.w3.org/1999/xlink" id="visual" viewBox="0 0 900 300" width="900" height="300" version="1.1"><rect x="0" y="0" width="900" height="300" fill="#202731"/><path d="M0 122L21.5 116.7C43 111.3 86 100.7 128.8 100.5C171.7 100.3 214.3 110.7 257.2 111C300 111.3 343 101.7 385.8 101.7C428.7 101.7 471.3 111.3 514.2 113.3C557 115.3 600 109.7 642.8 109.5C685.7 109.3 728.3 114.7 771.2 115.5C814 116.3 857 112.7 878.5 110.8L900 109L900 0L878.5 0C857 0 814 0 771.2 0C728.3 0 685.7 0 642.8 0C600 0 557 0 514.2 0C471.3 0 428.7 0 385.8 0C343 0 300 0 257.2 0C214.3 0 171.7 0 128.8 0C86 0 43 0 21.5 0L0 0Z" fill="#49172c"/><path d="M0 88L21.5 89C43 90 86 92 128.8 91C171.7 90 214.3 86 257.2 87.2C300 88.3 343 94.7 385.8 94.2C428.7 93.7 471.3 86.3 514.2 85C557 83.7 600 88.3 642.8 91.2C685.7 94 728.3 95 771.2 92.3C814 89.7 857 83.3 878.5 80.2L900 77L900 0L878.5 0C857 0 814 0 771.2 0C728.3 0 685.7 0 642.8 0C600 0 557 0 514.2 0C471.3 0 428.7 0 385.8 0C343 0 300 0 257.2 0C214.3 0 171.7 0 128.8 0C86 0 43 0 21.5 0L0 0Z" fill="#6f1c37"/><path d="M0 70L21.5 67C43 64 86 58 128.8 59.7C171.7 61.3 214.3 70.7 257.2 72.2C300 73.7 343 67.3 385.8 63.8C428.7 60.3 471.3 59.7 514.2 61.7C557 63.7 600 68.3 642.8 67.5C685.7 66.7 728.3 60.3 771.2 57.2C814 54 857 54 878.5 54L900 54L900 0L878.5 0C857 0 814 0 771.2 0C728.3 0 685.7 0 642.8 0C600 0 557 0 514.2 0C471.3 0 428.7 0 385.8 0C343 0 300 0 257.2 0C214.3 0 171.7 0 128.8 0C86 0 43 0 21.5 0L0 0Z" fill="#95223b"/><path d="M0 57L21.5 52.8C43 48.7 86 40.3 128.8 35.5C171.7 30.7 214.3 29.3 257.2 32.2C300 35 343 42 385.8 44.5C428.7 47 471.3 45 514.2 43.2C557 41.3 600 39.7 642.8 38.8C685.7 38 728.3 38 771.2 37.5C814 37 857 36 878.5 35.5L900 35L900 0L878.5 0C857 0 814 0 771.2 0C728.3 0 685.7 0 642.8 0C600 0 557 0 514.2 0C471.3 0 428.7 0 385.8 0C343 0 300 0 257.2 0C214.3 0 171.7 0 128.8 0C86 0 43 0 21.5 0L0 0Z" fill="#ba2d3a"/><path d="M0 17L21.5 16.5C43 16 86 15 128.8 14.2C171.7 13.3 214.3 12.7 257.2 15.8C300 19 343 26 385.8 26.3C428.7 26.7 471.3 20.3 514.2 19.5C557 18.7 600 23.3 642.8 23.5C685.7 23.7 728.3 19.3 771.2 17C814 14.7 857 14.3 878.5 14.2L900 14L900 0L878.5 0C857 0 814 0 771.2 0C728.3 0 685.7 0 642.8 0C600 0 557 0 514.2 0C471.3 0 428.7 0 385.8 0C343 0 300 0 257.2 0C214.3 0 171.7 0 128.8 0C86 0 43 0 21.5 0L0 0Z" fill="#dd3f31"/></svg>